<svg xmlns="http://www.w3.org/2000/svg" width="253.164" height="84.403" viewBox="0 0 253.164 84.403"><g id="Group_91" data-name="Group 91" transform="translate(-946.836 -1293)"><g id="_624544880" transform="translate(946.836 1293)"><path id="Path_111" data-name="Path 111" d="M899.38,3006.688a1.736,1.736,0,1,0,3.464,0v-6.083h9.673v6.083a1.737,1.737,0,1,0,3.465,0v-11.617c0-5.872-4.056-7.942-7.266-7.942a7.158,7.158,0,0,0-5.787,2.789l-.084-.084v-.844a1.736,1.736,0,1,0-3.464,0v17.7h0Zm3.464-9.125v-2.28a4.771,4.771,0,0,1,4.858-5.154c2.281,0,4.815,1.521,4.815,5.154v2.28Zm142.867-10.181c-1.141,0-1.732.55-1.732,1.479,0,.971.591,1.52,1.732,1.52h4.6v16.307a1.678,1.678,0,0,0,1.732,1.858,1.656,1.656,0,0,0,1.732-1.858v-16.307h4.563c1.141,0,1.732-.549,1.732-1.52,0-.929-.591-1.479-1.732-1.479Zm-34.555,12.842c0,6.125,4.055,8.322,8.28,8.322s8.279-2.2,8.279-8.322v-11.236a1.717,1.717,0,1,0-3.422,0V3000.1c0,3.549-1.605,5.451-4.858,5.451s-4.858-1.9-4.858-5.451v-11.109a1.717,1.717,0,1,0-3.422,0v11.236h0Zm-27.543,6.463a1.736,1.736,0,1,0,3.464,0v-9.927c0-4.056,2.534-5.577,4.562-5.956,1.479-.254,2.155-.888,2.155-1.9a1.768,1.768,0,0,0-1.9-1.775c-2.027,0-3.97,2.029-4.731,3.634h-.084v-1.774a1.736,1.736,0,1,0-3.464,0v17.7Zm-35.527,0a1.736,1.736,0,1,0,3.464,0v-11.7c0-3,1.647-4.858,4.436-4.858,2.83,0,4.477,1.859,4.477,4.858v11.7a1.736,1.736,0,1,0,3.464,0v-11.617c0-5.872-4.056-7.942-7.266-7.942a7.245,7.245,0,0,0-6.421,3.549,6.464,6.464,0,0,0-5.745-3.549,5.992,5.992,0,0,0-5.28,2.578l-.084-.084v-.633a1.736,1.736,0,1,0-3.464,0v17.7a1.736,1.736,0,1,0,3.464,0v-11.7c0-3,1.647-4.858,4.478-4.858s4.478,1.859,4.478,4.858Z" transform="translate(-899.379 -2958.15)" fill="#24211f" fill-rule="evenodd"></path><g id="Group_76" data-name="Group 76" transform="translate(0 62.984)"><path id="Path_112" data-name="Path 112" d="M1037.9,5444.751a7.824,7.824,0,0,0,.042,1.015c-.338,2.873-1.9,4.351-4.773,4.351-3.253,0-4.858-1.9-4.858-5.491v-11.068a1.737,1.737,0,1,0-3.464,0v11.193c0,6.127,4.1,8.364,8.322,8.364a8.339,8.339,0,0,0,6.505-2.659,8.461,8.461,0,0,0,6.505,2.659c4.224,0,8.322-2.237,8.322-8.364v-11.193a1.736,1.736,0,1,0-3.464,0v11.068c0,3.59-1.563,5.491-4.816,5.491-2.915,0-4.478-1.479-4.816-4.351a7.5,7.5,0,0,0,.042-1.015v-11.193a1.658,1.658,0,0,0-1.732-1.86h-.085a1.679,1.679,0,0,0-1.732,1.86v11.193Zm-64.8-12.8h4.816a1.554,1.554,0,0,1,1.6,1.478h0a1.562,1.562,0,0,1-1.6,1.521H970.9v4.983H978a1.516,1.516,0,0,1,1.521,1.522h0a1.513,1.513,0,0,1-1.521,1.52h-7.1v8.28a1.657,1.657,0,0,1-1.732,1.858,1.677,1.677,0,0,1-1.732-1.858v-16.35h-1.394c-1.141,0-1.732-.547-1.732-1.479s.591-1.476,1.732-1.476Zm177.422,11.786c1.521,0,1.943-.634,1.943-1.859,0-5.027-3.3-10.182-9-10.182-5.872,0-9.42,5.027-9.42,10.688,0,5.578,2.915,10.729,9.589,10.729,4.1,0,8.406-2.62,8.406-4.306a1.373,1.373,0,0,0-1.267-1.524c-1.31,0-2.492,2.832-7.1,2.832-3.886,0-6.167-2.787-6.167-6.379h13.011Zm-13.011-2.62c.127-3.169,1.648-6.5,5.956-6.421,3.8.043,5.534,3.463,5.534,6.421Zm-26.951,10.139a1.736,1.736,0,1,0,3.464,0v-9.969c0-4.057,2.534-5.578,4.562-5.914,1.436-.253,2.155-.931,2.155-1.9a1.768,1.768,0,0,0-1.9-1.775c-2.028,0-3.971,2.03-4.732,3.635h-.084v-1.775a1.736,1.736,0,1,0-3.464,0v17.7Zm-114.818-19.3c-1.14,0-1.732.549-1.732,1.478s.591,1.476,1.732,1.476h4.647v16.35a1.657,1.657,0,0,0,1.732,1.858,1.677,1.677,0,0,0,1.732-1.858v-16.35h4.6c1.141,0,1.732-.547,1.732-1.476s-.592-1.478-1.732-1.478H995.742Zm-65.012,10.433c0,5.578,3.337,10.729,9.209,10.729,5.914,0,9.209-5.151,9.209-10.729,0-5.534-3.3-10.688-9.209-10.688-5.872,0-9.209,5.154-9.209,10.688Zm3.464,0c0-3.548,1.521-7.687,5.745-7.687,4.266,0,5.745,4.138,5.745,7.687s-1.479,7.73-5.745,7.73c-4.224,0-5.745-4.182-5.745-7.73Zm-34.006-4.772c0,5.828,11.152,5.575,11.152,9.671,0,1.395-1.521,2.832-4.055,2.832-3.76,0-5.027-2.577-6.548-2.577a1.5,1.5,0,0,0-1.436,1.607c0,1.731,3.464,3.968,7.9,3.968,3.886,0,7.6-2.112,7.6-6.463,0-6.083-11.152-5.66-11.152-9.335,0-1.776,1.69-2.617,3.633-2.617,3.337,0,3.886,2.111,5.407,2.111a1.4,1.4,0,0,0,1.563-1.4c0-2.2-4.1-3.718-6.97-3.718C903.778,5431.7,900.188,5433.728,900.188,5437.614Z" transform="translate(-899.3 -5431.698)" fill="#24211f" fill-rule="evenodd"></path><path id="Path_113" data-name="Path 113" d="M13456.3,5451.278a1.735,1.735,0,1,0,3.462,0v-6.125h9.678v6.125a1.734,1.734,0,1,0,3.459,0v-11.615c0-5.917-4.056-7.944-7.265-7.944a7.188,7.188,0,0,0-5.793,2.745l-.079-.083v-.8a1.735,1.735,0,1,0-3.462,0v17.7Zm3.462-9.126v-2.279c0-3.677,2.573-5.154,4.858-5.154s4.819,1.479,4.819,5.154v2.279Z" transform="translate(-13281.624 -5431.719)" fill="#24211f" fill-rule="evenodd"></path></g><path id="Path_114" data-name="Path 114" d="M15296.8,928.568a6.539,6.539,0,0,1,10.816,7.308h.047l-10.863,15.5V928.568Zm0-11.11a30.938,30.938,0,0,1,25.854,30.2h-.037v6.717h13.176v-6.717h-.084a44.081,44.081,0,0,0-38.908-43.384Zm-1.562,36.118a6.381,6.381,0,0,1-4.264,2.788,6.519,6.519,0,0,1-5.832-10.983l10.941-15.63a7.2,7.2,0,0,1,.717-1.182v22.811l-1.562,2.239v-.042Zm1.563-49.3v13.18a30.521,30.521,0,0,0-4.852-.422v.084h-6.891V903.94h6.891v.042C15293.595,904.025,15295.2,904.109,15296.8,904.278Z" transform="translate(-15083.182 -903.94)" fill="#f58220" fill-rule="evenodd"></path></g></g></svg>